<svg id="svg" version="1.1" xmlns="http://www.w3.org/2000/svg" xmlns:xlink="http://www.w3.org/1999/xlink" width="400" height="400" viewBox="0, 0, 400,400"><g id="svgg"><path id="path0" d="M136.260 142.907 C 135.879 143.186,135.349 143.788,135.083 144.246 C 134.172 145.816,131.400 150.093,131.000 150.546 C 130.780 150.796,129.033 153.340,127.117 156.200 C 125.201 159.060,122.813 162.570,121.810 164.000 C 120.085 166.459,117.867 169.803,116.995 171.260 C 116.778 171.624,115.340 173.750,113.800 175.986 C 112.260 178.222,110.665 180.625,110.255 181.326 C 109.845 182.027,109.389 182.690,109.242 182.800 C 109.094 182.910,108.356 183.990,107.600 185.200 C 106.844 186.410,106.121 187.490,105.992 187.600 C 105.534 187.992,103.200 191.646,103.200 191.971 C 103.200 192.153,102.925 192.530,102.589 192.809 C 101.768 193.490,99.742 196.521,99.412 197.562 C 99.266 198.023,99.009 198.400,98.840 198.400 C 98.672 198.400,97.939 199.345,97.212 200.500 C 95.716 202.873,96.004 202.443,91.303 209.341 C 89.376 212.169,87.620 214.780,87.400 215.144 C 87.180 215.507,85.920 217.403,84.600 219.358 C 83.280 221.312,81.930 223.314,81.600 223.807 C 78.427 228.541,67.851 244.185,66.600 245.993 C 65.720 247.266,63.934 249.902,62.632 251.853 C 61.329 253.804,58.899 257.438,57.232 259.930 C 55.564 262.421,53.782 265.092,53.271 265.866 C 51.691 268.260,52.003 268.400,58.907 268.400 L 65.039 268.400 66.419 266.979 C 68.337 265.004,68.738 264.553,71.199 261.600 C 72.391 260.170,74.184 258.097,75.183 256.993 C 76.182 255.889,77.720 254.109,78.600 253.038 C 79.480 251.967,80.477 250.800,80.816 250.445 C 81.155 250.090,82.400 248.630,83.582 247.200 C 84.765 245.770,86.022 244.330,86.375 244.000 C 86.728 243.670,87.914 242.302,89.009 240.960 C 90.104 239.619,92.331 237.009,93.957 235.160 C 95.583 233.312,97.383 231.256,97.957 230.590 C 102.599 225.206,103.557 224.083,104.232 223.235 C 104.654 222.705,105.900 221.252,107.000 220.007 C 111.154 215.306,111.820 214.538,113.775 212.200 C 114.879 210.880,116.063 209.530,116.405 209.200 C 116.937 208.688,119.050 206.229,122.207 202.451 C 122.643 201.929,123.281 201.209,123.624 200.851 C 123.967 200.493,125.673 198.490,127.416 196.400 C 129.159 194.310,130.787 192.420,131.034 192.200 C 131.281 191.980,132.368 190.720,133.450 189.400 C 138.728 182.962,139.236 182.400,139.778 182.400 C 140.702 182.400,141.182 185.014,142.384 196.600 C 142.730 199.927,143.276 204.767,144.393 214.400 C 144.636 216.490,145.018 220.000,145.243 222.200 C 145.468 224.400,145.931 228.360,146.272 231.000 C 146.613 233.640,147.050 237.690,147.244 240.000 C 147.438 242.310,147.866 246.000,148.195 248.200 C 148.524 250.400,148.978 254.630,149.204 257.600 C 149.647 263.428,150.250 267.105,150.894 267.900 C 151.207 268.287,155.470 268.400,169.749 268.399 L 188.200 268.398 191.000 264.791 C 196.022 258.322,198.911 254.581,204.600 247.179 C 207.680 243.172,211.280 238.499,212.600 236.795 C 213.920 235.091,215.900 232.497,217.000 231.030 C 218.100 229.564,219.269 228.071,219.599 227.712 C 219.928 227.353,221.138 225.786,222.287 224.230 C 224.564 221.147,225.379 220.082,226.600 218.594 C 227.040 218.058,227.850 216.973,228.400 216.185 C 229.304 214.887,234.484 208.245,235.703 206.819 C 236.250 206.179,238.073 203.854,239.011 202.600 C 240.179 201.038,243.992 196.181,245.052 194.904 C 246.360 193.329,247.199 193.736,247.203 195.949 C 247.204 196.747,247.469 199.110,247.790 201.200 C 248.111 203.290,248.560 207.970,248.787 211.600 C 249.013 215.230,249.464 220.810,249.789 224.000 C 250.113 227.190,250.660 233.220,251.003 237.400 C 252.871 260.111,253.620 267.341,254.166 267.913 C 254.553 268.319,259.197 268.423,276.362 268.407 L 298.070 268.387 300.217 266.694 C 301.398 265.762,303.564 264.100,305.030 263.000 C 309.304 259.794,314.130 256.032,315.056 255.184 C 315.527 254.753,316.023 254.400,316.158 254.400 C 316.292 254.400,317.897 253.185,319.723 251.700 C 321.549 250.215,323.544 248.640,324.156 248.200 C 324.768 247.760,326.378 246.545,327.734 245.500 C 329.090 244.455,330.650 243.257,331.200 242.838 C 331.750 242.418,334.090 240.571,336.400 238.733 C 338.710 236.894,341.458 234.762,342.508 233.995 C 343.557 233.228,344.907 232.195,345.508 231.700 C 346.108 231.206,346.735 230.801,346.900 230.800 C 347.535 230.799,347.161 229.607,346.397 229.198 C 345.844 228.902,338.702 228.804,323.497 228.884 L 301.400 229.000 299.614 230.400 C 298.632 231.170,297.473 232.115,297.038 232.500 C 294.821 234.466,294.083 233.160,293.590 226.400 C 293.357 223.210,293.008 219.520,292.815 218.200 C 292.621 216.880,292.262 213.280,292.017 210.200 C 291.772 207.120,291.306 202.530,290.981 200.000 C 290.656 197.470,290.214 192.970,289.998 190.000 C 289.782 187.030,289.335 182.530,289.005 180.000 C 288.402 175.383,287.449 166.236,286.754 158.400 C 285.846 148.163,285.450 144.916,284.963 143.700 L 284.441 142.400 263.650 142.400 L 242.858 142.400 241.415 144.300 C 239.403 146.947,236.787 150.512,235.600 152.221 C 235.050 153.013,234.240 154.093,233.800 154.621 C 233.360 155.149,232.550 156.227,232.000 157.016 C 231.450 157.805,230.277 159.384,229.393 160.525 C 228.510 161.666,227.256 163.410,226.606 164.400 C 225.957 165.390,225.182 166.470,224.885 166.800 C 224.349 167.395,223.382 168.711,216.800 177.806 C 214.930 180.390,212.545 183.553,211.500 184.834 C 210.455 186.116,209.600 187.262,209.600 187.381 C 209.600 187.499,208.205 189.506,206.500 191.840 C 204.795 194.174,203.040 196.585,202.600 197.198 C 202.160 197.811,200.180 200.518,198.200 203.215 C 196.220 205.911,193.896 209.125,193.035 210.358 C 192.175 211.591,191.348 212.690,191.197 212.800 C 191.047 212.910,190.174 214.104,189.258 215.454 C 188.342 216.804,187.324 218.131,186.996 218.403 C 186.668 218.675,186.393 219.101,186.384 219.349 C 186.345 220.427,184.051 222.540,183.456 222.046 C 182.750 221.461,182.036 217.626,181.585 212.000 C 181.275 208.132,180.129 198.046,179.177 190.800 C 178.960 189.150,178.523 185.190,178.206 182.000 C 177.888 178.810,177.356 174.310,177.022 172.000 C 176.688 169.690,176.137 165.100,175.798 161.800 C 175.459 158.500,175.008 154.270,174.795 152.400 C 174.582 150.530,174.301 147.783,174.171 146.296 C 174.034 144.716,173.688 143.345,173.339 142.996 C 172.521 142.178,137.373 142.093,136.260 142.907 " stroke="none" fill="#e80d75" fill-rule="evenodd"></path><path id="path1" d="M0.000 200.000 L 0.000 400.000 200.000 400.000 L 400.000 400.000 400.000 200.000 L 400.000 0.000 200.000 0.000 L 0.000 0.000 0.000 200.000 M173.339 142.996 C 173.688 143.345,174.034 144.716,174.171 146.296 C 174.301 147.783,174.582 150.530,174.795 152.400 C 175.008 154.270,175.459 158.500,175.798 161.800 C 176.137 165.100,176.688 169.690,177.022 172.000 C 177.356 174.310,177.888 178.810,178.206 182.000 C 178.523 185.190,178.960 189.150,179.177 190.800 C 180.129 198.046,181.275 208.132,181.585 212.000 C 182.036 217.626,182.750 221.461,183.456 222.046 C 184.051 222.540,186.345 220.427,186.384 219.349 C 186.393 219.101,186.668 218.675,186.996 218.403 C 187.324 218.131,188.342 216.804,189.258 215.454 C 190.174 214.104,191.047 212.910,191.197 212.800 C 191.348 212.690,192.175 211.591,193.035 210.358 C 193.896 209.125,196.220 205.911,198.200 203.215 C 200.180 200.518,202.160 197.811,202.600 197.198 C 203.040 196.585,204.795 194.174,206.500 191.840 C 208.205 189.506,209.600 187.499,209.600 187.381 C 209.600 187.262,210.455 186.116,211.500 184.834 C 212.545 183.553,214.930 180.390,216.800 177.806 C 223.382 168.711,224.349 167.395,224.885 166.800 C 225.182 166.470,225.957 165.390,226.606 164.400 C 227.256 163.410,228.510 161.666,229.393 160.525 C 230.277 159.384,231.450 157.805,232.000 157.016 C 232.550 156.227,233.360 155.149,233.800 154.621 C 234.240 154.093,235.050 153.013,235.600 152.221 C 236.787 150.512,239.403 146.947,241.415 144.300 L 242.858 142.400 263.650 142.400 L 284.441 142.400 284.963 143.700 C 285.450 144.916,285.846 148.163,286.754 158.400 C 287.449 166.236,288.402 175.383,289.005 180.000 C 289.335 182.530,289.782 187.030,289.998 190.000 C 290.214 192.970,290.656 197.470,290.981 200.000 C 291.306 202.530,291.772 207.120,292.017 210.200 C 292.262 213.280,292.621 216.880,292.815 218.200 C 293.008 219.520,293.357 223.210,293.590 226.400 C 294.083 233.160,294.821 234.466,297.038 232.500 C 297.473 232.115,298.632 231.170,299.614 230.400 L 301.400 229.000 323.497 228.884 C 338.702 228.804,345.844 228.902,346.397 229.198 C 347.161 229.607,347.535 230.799,346.900 230.800 C 346.735 230.801,346.108 231.206,345.508 231.700 C 344.907 232.195,343.557 233.228,342.508 233.995 C 341.458 234.762,338.710 236.894,336.400 238.733 C 334.090 240.571,331.750 242.418,331.200 242.838 C 330.650 243.257,329.090 244.455,327.734 245.500 C 326.378 246.545,324.768 247.760,324.156 248.200 C 323.544 248.640,321.549 250.215,319.723 251.700 C 317.897 253.185,316.292 254.400,316.158 254.400 C 316.023 254.400,315.527 254.753,315.056 255.184 C 314.130 256.032,309.304 259.794,305.030 263.000 C 303.564 264.100,301.398 265.762,300.217 266.694 L 298.070 268.387 276.362 268.407 C 259.197 268.423,254.553 268.319,254.166 267.913 C 253.620 267.341,252.871 260.111,251.003 237.400 C 250.660 233.220,250.113 227.190,249.789 224.000 C 249.464 220.810,249.013 215.230,248.787 211.600 C 248.560 207.970,248.111 203.290,247.790 201.200 C 247.469 199.110,247.204 196.747,247.203 195.949 C 247.199 193.736,246.360 193.329,245.052 194.904 C 243.992 196.181,240.179 201.038,239.011 202.600 C 238.073 203.854,236.250 206.179,235.703 206.819 C 234.484 208.245,229.304 214.887,228.400 216.185 C 227.850 216.973,227.040 218.058,226.600 218.594 C 225.379 220.082,224.564 221.147,222.287 224.230 C 221.138 225.786,219.928 227.353,219.599 227.712 C 219.269 228.071,218.100 229.564,217.000 231.030 C 215.900 232.497,213.920 235.091,212.600 236.795 C 211.280 238.499,207.680 243.172,204.600 247.179 C 198.911 254.581,196.022 258.322,191.000 264.791 L 188.200 268.398 169.749 268.399 C 155.470 268.400,151.207 268.287,150.894 267.900 C 150.250 267.105,149.647 263.428,149.204 257.600 C 148.978 254.630,148.524 250.400,148.195 248.200 C 147.866 246.000,147.438 242.310,147.244 240.000 C 147.050 237.690,146.613 233.640,146.272 231.000 C 145.931 228.360,145.468 224.400,145.243 222.200 C 145.018 220.000,144.636 216.490,144.393 214.400 C 143.276 204.767,142.730 199.927,142.384 196.600 C 141.182 185.014,140.702 182.400,139.778 182.400 C 139.236 182.400,138.728 182.962,133.450 189.400 C 132.368 190.720,131.281 191.980,131.034 192.200 C 130.787 192.420,129.159 194.310,127.416 196.400 C 125.673 198.490,123.967 200.493,123.624 200.851 C 123.281 201.209,122.643 201.929,122.207 202.451 C 119.050 206.229,116.937 208.688,116.405 209.200 C 116.063 209.530,114.879 210.880,113.775 212.200 C 111.820 214.538,111.154 215.306,107.000 220.007 C 105.900 221.252,104.654 222.705,104.232 223.235 C 103.557 224.083,102.599 225.206,97.957 230.590 C 97.383 231.256,95.583 233.312,93.957 235.160 C 92.331 237.009,90.104 239.619,89.009 240.960 C 87.914 242.302,86.728 243.670,86.375 244.000 C 86.022 244.330,84.765 245.770,83.582 247.200 C 82.400 248.630,81.155 250.090,80.816 250.445 C 80.477 250.800,79.480 251.967,78.600 253.038 C 77.720 254.109,76.182 255.889,75.183 256.993 C 74.184 258.097,72.391 260.170,71.199 261.600 C 68.738 264.553,68.337 265.004,66.419 266.979 L 65.039 268.400 58.907 268.400 C 52.003 268.400,51.691 268.260,53.271 265.866 C 53.782 265.092,55.564 262.421,57.232 259.930 C 58.899 257.438,61.329 253.804,62.632 251.853 C 63.934 249.902,65.720 247.266,66.600 245.993 C 67.851 244.185,78.427 228.541,81.600 223.807 C 81.930 223.314,83.280 221.312,84.600 219.358 C 85.920 217.403,87.180 215.507,87.400 215.144 C 87.620 214.780,89.376 212.169,91.303 209.341 C 96.004 202.443,95.716 202.873,97.212 200.500 C 97.939 199.345,98.672 198.400,98.840 198.400 C 99.009 198.400,99.266 198.023,99.412 197.562 C 99.742 196.521,101.768 193.490,102.589 192.809 C 102.925 192.530,103.200 192.153,103.200 191.971 C 103.200 191.646,105.534 187.992,105.992 187.600 C 106.121 187.490,106.844 186.410,107.600 185.200 C 108.356 183.990,109.094 182.910,109.242 182.800 C 109.389 182.690,109.845 182.027,110.255 181.326 C 110.665 180.625,112.260 178.222,113.800 175.986 C 115.340 173.750,116.778 171.624,116.995 171.260 C 117.867 169.803,120.085 166.459,121.810 164.000 C 122.813 162.570,125.201 159.060,127.117 156.200 C 129.033 153.340,130.780 150.796,131.000 150.546 C 131.400 150.093,134.172 145.816,135.083 144.246 C 136.166 142.381,135.965 142.400,154.848 142.400 C 170.172 142.400,172.829 142.486,173.339 142.996 " stroke="none" fill="#fbfbfb" fill-rule="evenodd"></path></g></svg>